
<svg xmlns="http://www.w3.org/2000/svg" width="512" height="512" viewBox="0 0 512 512" fill="none">
  <rect width="512" height="512" rx="128" fill="url(#paint0_linear)"/>
  <path d="M320 352c35.35 0 64-28.65 64-64c0-35.35-28.65-64-64-64s-64 28.65-64 64C256 323.3 284.7 352 320 352z" fill="#ffffff" fill-opacity="0.4"/>
  <path d="M320 376c-48.15 0-87.76-35.54-94.64-81.68C224.8 294 223.9 293.7 223 293.4v0C175.1 278.3 192 242.1 192 242.1s-31.75-31.38-31.75-80.88c0-48 42.25-87.88 87.1-87.88c17.5 0 33.5 5.75 45.88 15.38C307 93.88 321 107.8 327.5 125c1.25 3.75 4.75 6.25 8.62 6.25c17.5 0 31.62 14.38 31.62 32C367.8 180.5 353.5 194.8 336 194.8c-4.75 0-8.62-1.25-12.88-3.75c-2-1.25-3-2.62-3.75-4.25C315.9 196.9 313.1 207.3 313.1 217.4c0 31.38 25.38 56.75 56.75 56.75c31.38 0 56.75-25.38 56.75-56.75c0-30.75-24.38-55.5-54.38-56.75C382.5 117.3 340.6 86.63 292.2 86.63c-62.75 0-113.6 50.88-113.6 113.6c0 50.5 32.88 92.75 78.62 107.6c3.125 0.875 5.25 3.75 5.25 7V316c0 17.5 14.38 32 32 32h49.5c-7.25-3.5-14.25-7.62-20.88-12.62C332.9 335.8 326.9 376 320 376z" fill="white"/>
  <path d="M256 144c-8.875 0-16 7.125-16 16c0 8.875 7.125 16 16 16s16-7.125 16-16C272 151.1 264.9 144 256 144zM336 176c-8.875 0-16 7.125-16 16c0 8.875 7.125 16 16 16s16-7.125 16-16C352 183.1 344.9 176 336 176zM240 208C231.1 208 224 215.1 224 224c0 8.875 7.125 16 16 16s16-7.125 16-16C256 215.1 248.9 208 240 208z" fill="white"/>
  <defs>
    <linearGradient id="paint0_linear" x1="0" y1="0" x2="512" y2="512" gradientUnits="userSpaceOnUse">
      <stop stop-color="#9b87f5"/>
      <stop offset="1" stop-color="#6040c7"/>
    </linearGradient>
  </defs>
</svg>
