
<svg xmlns="http://www.w3.org/2000/svg" width="64" height="64" viewBox="0 0 64 64" fill="none">
  <rect width="64" height="64" rx="16" fill="url(#paint0_linear)"/>
  <path d="M40 44c4.42 0 8-3.58 8-8c0-4.42-3.58-8-8-8s-8 3.58-8 8C32 40.42 35.58 44 40 44z" fill="#ffffff" fill-opacity="0.4"/>
  <path d="M40 47c-6.02 0-10.97-4.44-11.83-10.21c-0.07-0.04-0.14-0.08-0.21-0.11v0C21.9 34.79 24 30.26 24 30.26s-3.97-3.92-3.97-10.11c0-6 5.28-10.99 10.99-10.99c2.19 0 4.19 0.72 5.73 1.92C38.38 11.73 40.13 13.48 40.94 15.63c0.16 0.47 0.59 0.78 1.08 0.78c2.19 0 3.95 1.8 3.95 4C46 22.56 44.19 24.35 42 24.35c-0.59 0-1.08-0.16-1.61-0.47c-0.25-0.16-0.38-0.33-0.47-0.53C39.49 24.61 39.51 25.91 39.51 27.17c0 3.92 3.17 7.09 7.09 7.09c3.92 0 7.09-3.17 7.09-7.09c0-3.84-3.05-6.94-6.8-7.09C47.81 14.66 42.58 10.83 36.52 10.83c-7.84 0-14.2 6.36-14.2 14.2c0 6.31 4.11 11.59 9.83 13.45c0.39 0.11 0.66 0.47 0.66 0.88V39.5c0 2.19 1.8 4 4 4h6.19c-0.91-0.44-1.78-0.95-2.61-1.58C41.61 41.98 40.89 47 40 47z" fill="white"/>
  <path d="M32 18c-1.11 0-2 0.89-2 2c0 1.11 0.89 2 2 2s2-0.89 2-2C34 18.89 33.11 18 32 18zM42 22c-1.11 0-2 0.89-2 2c0 1.11 0.89 2 2 2s2-0.89 2-2C44 22.89 43.11 22 42 22zM30 26C28.89 26 28 26.89 28 28c0 1.11 0.89 2 2 2s2-0.89 2-2C32 26.89 31.11 26 30 26z" fill="white"/>
  <defs>
    <linearGradient id="paint0_linear" x1="0" y1="0" x2="64" y2="64" gradientUnits="userSpaceOnUse">
      <stop stop-color="#9b87f5"/>
      <stop offset="1" stop-color="#6040c7"/>
    </linearGradient>
  </defs>
</svg>
