
<svg xmlns="http://www.w3.org/2000/svg" width="64" height="64" viewBox="0 0 64 64" fill="none">
  <rect width="64" height="64" rx="16" fill="#121d42"/>
  <path d="M32 50c12.15 0 22-9.85 22-22S44.15 6 32 6 10 15.85 10 28s9.85 22 22 22z" fill="#121d42"/>
  <path d="M46 28c0 7.732-6.268 14-14 14s-14-6.268-14-14 6.268-14 14-14 14 6.268 14 14z" fill="#121d42"/>
  <path d="M42 28c0 5.523-4.477 10-10 10s-10-4.477-10-10 4.477-10 10-10 10 4.477 10 10z" fill="#1a2952"/>
  <path d="M19 16l1.5 1.5M43 19l1.5 1.5M24 10l1 2M38 11l-1 2M50 25l-2 1" stroke="#f0e6cf" stroke-width="1.5"/>
  <path d="M45 35c-1.667-2.667-5.4-7.2-9-6M19 28c0-3.333 2.6-10 9-10" stroke="#f0e6cf" stroke-width="1.5" stroke-linecap="round"/>
  <path d="M38 40c-4 2-6.5 3-12 0M26 18c5.5-3 8.5-3 12 0" stroke="#f0e6cf" stroke-width="1.5" stroke-linecap="round"/>
  <path d="M48 30c-6.4 10.4-25.6 10.4-32 0 6.4-10.4 25.6-10.4 32 0z" fill="#f0e6cf"/>
</svg>
